<?xml version="1.0" encoding="UTF-8" standalone="no"?>
<svg
   id="レイヤー_1"
   data-name="レイヤー 1"
   viewBox="0 0 511.99997 123.45599"
   version="1.1"
   sodipodi:docname="logo-text.svg"
   width="511.99997"
   height="123.456"
   inkscape:version="1.2.2 (b0a8486541, 2022-12-01)"
   xmlns:inkscape="http://www.inkscape.org/namespaces/inkscape"
   xmlns:sodipodi="http://sodipodi.sourceforge.net/DTD/sodipodi-0.dtd"
   xmlns="http://www.w3.org/2000/svg"
   xmlns:svg="http://www.w3.org/2000/svg">
  <sodipodi:namedview
     id="namedview43"
     pagecolor="#ffffff"
     bordercolor="#000000"
     borderopacity="0.25"
     inkscape:showpageshadow="2"
     inkscape:pageopacity="0.0"
     inkscape:pagecheckerboard="0"
     inkscape:deskcolor="#d1d1d1"
     showgrid="false"
     inkscape:zoom="0.915625"
     inkscape:cx="640"
     inkscape:cy="199.86348"
     inkscape:window-width="1312"
     inkscape:window-height="699"
     inkscape:window-x="0"
     inkscape:window-y="0"
     inkscape:window-maximized="1"
     inkscape:current-layer="レイヤー_1" />
  <defs
     id="defs4">
    <style
       id="style2">.cls-1{fill:none;}.cls-2{fill:#ffd300;}</style>
  </defs>
  <rect
     class="cls-1"
     width="512"
     height="123.45601"
     id="rect6"
     x="0"
     y="0"
     style="stroke-width:0.4" />
  <path
     d="m 153.08,67.608 q 0,6.576 -4.02,10.664 -4.02,4.088 -10.564,4.092 -6.344,0 -10.432,-4.032 -4.088,-4.032 -4.092,-10.376 0,-6.688 3.92,-10.852 3.92,-4.164 10.604,-4.164 6.516,0 10.548,4.08 4.032,4.08 4.036,10.588 z m -9.452,0 a 6.22,6.22 0 0 0 -1.412,-4 4.504,4.504 0 0 0 -3.66,-1.744 4.64,4.64 0 0 0 -3.748,1.788 6.448,6.448 0 0 0 0,8 4.8,4.8 0 0 0 7.464,0 6.168,6.168 0 0 0 1.356,-4.044 z"
     fill="#ffffff"
     id="path8"
     style="stroke-width:0.4" />
  <path
     d="m 187.484,67.936 q 0,6.168 -3.632,10.228 -3.748,4.212 -9.828,4.208 a 12.076,12.076 0 0 1 -4.756,-1.092 q -2.54,-1.096 -2.304,-1.096 c -0.252,0 -0.376,0.288 -0.376,0.864 q 0,1.468 0.144,4.424 0.144,2.956 0.144,4.424 a 0.828,0.828 0 0 1 -0.952,0.924 l -5.88,0.028 a 13.732,13.732 0 0 1 -2.564,-0.144 1.004,1.004 0 0 1 -0.864,-1.068 l 0.056,-22.192 q 0,-6.716 -1.008,-11.324 a 2.76,2.76 0 0 1 -0.056,-0.492 0.564,0.564 0 0 1 0.344,-0.576 24.672,24.672 0 0 1 4.296,-0.924 32.58,32.58 0 0 1 4.468,-0.488 q 1.124,0 1.28,1.484 c 0.108,0.988 0.236,1.484 0.4,1.484 -0.196,0 0.628,-0.524 2.464,-1.572 1.836,-1.048 3.5,-1.568 5,-1.568 q 6.252,0 10,4.12 3.624,3.98 3.624,10.348 z M 176.8,67.876 a 6.188,6.188 0 0 0 -1.412,-4.032 4.748,4.748 0 0 0 -3.776,-1.816 4.4,4.4 0 0 0 -3.692,1.816 6.624,6.624 0 0 0 -1.2,4.032 6.356,6.356 0 0 0 1.268,4.064 4.468,4.468 0 0 0 3.744,1.76 q 5.068,0 5.068,-5.824 z"
     fill="#ffffff"
     id="path10"
     style="stroke-width:0.4" />
  <path
     d="m 217.24,66.148 q 0,2.908 -1.876,3.316 c -0.208,0.036 -2.2,0.248 -5.964,0.632 q -3.4,0.376 -10.144,0.892 c 0.268,1.252 1.084,2.2 2.448,2.856 a 8.68,8.68 0 0 0 3.804,0.8 10.904,10.904 0 0 0 5.16,-1.38 l 2.192,-1.384 q 0.6,0.288 2.032,2.94 1.432,2.652 1.424,3.372 c 0,0.132 -0.144,0.356 -0.432,0.66 q -3.516,3.78 -10.924,3.776 -6.856,0 -11.064,-4 -4.328,-4.068 -4.324,-10.868 0,-6.624 3.86,-10.864 3.976,-4.4 10.548,-4.4 a 12.504,12.504 0 0 1 9.396,4.036 13.396,13.396 0 0 1 3.864,9.616 z m -10.088,-1.74 a 4.468,4.468 0 0 0 -1.268,-3.14 4,4 0 0 0 -3.028,-1.356 3.644,3.644 0 0 0 -2.996,1.528 5.276,5.276 0 0 0 -1.096,3.316 c 0,0.52 0.272,0.776 0.8,0.776 a 50.768,50.768 0 0 0 6.628,-0.66 c 0.644,-0.116 0.96,-0.272 0.96,-0.464 z"
     fill="#ffffff"
     id="path12"
     style="stroke-width:0.4" />
  <path
     d="m 248.832,80.96 a 0.824,0.824 0 0 1 -0.8,0.896 c -0.536,0.076 -1.94,0.116 -4.204,0.116 a 32.52,32.52 0 0 1 -4.496,-0.176 c -0.58,-0.112 -0.868,-0.508 -0.868,-1.2 0,-0.904 0.032,-2.268 0.088,-4.092 0.056,-1.824 0.088,-3.2 0.088,-4.124 0,-0.708 -0.02,-1.772 -0.06,-3.2 -0.04,-1.428 -0.056,-2.472 -0.056,-3.2 q 0,-3.948 -3.432,-3.948 c -0.748,0 -1.624,0.328 -2.62,0.98 q -1.6,1.1 -1.6,2.16 v 15.636 a 0.944,0.944 0 0 1 -0.892,1.068 c -0.672,0.076 -2.048,0.116 -4.12,0.116 a 33.28,33.28 0 0 1 -4.4,-0.176 c -0.596,-0.096 -0.892,-0.4 -0.892,-0.948 q 0,-2.248 0.028,-6.776 0.028,-4.528 0.028,-6.8 0,-7.176 -1.124,-11.268 a 2.236,2.236 0 0 1 -0.056,-0.432 0.636,0.636 0 0 1 0.432,-0.636 q 1.82,-0.196 4.844,-0.632 4.576,-0.896 5.156,-0.896 0.32,0 0.492,1.948 c 0.116,1.296 0.276,1.944 0.488,1.944 q -0.316,0 3.1,-2 3.416,-2 6,-2 3.66,0 6.108,1.732 a 6.444,6.444 0 0 1 2.74,5.532 v 9.2 q 0,1.872 0.028,5.6 0.028,3.728 0,5.576 z"
     fill="#ffffff"
     id="path14"
     style="stroke-width:0.4" />
  <path
     d="m 266.288,75.484 a 6.712,6.712 0 0 1 -1.976,4.872 6.464,6.464 0 0 1 -4.8,2 6.4,6.4 0 0 1 -4.8,-2.032 6.976,6.976 0 0 1 0,-9.696 6.7,6.7 0 0 1 9.58,0 6.676,6.676 0 0 1 1.996,4.856 z"
     fill="#ffffff"
     id="path16"
     style="stroke-width:0.4" />
  <path
     d="m 293.532,51.824 a 4.8,4.8 0 0 1 -0.46,2.16 q -3.78,7.464 -10.272,15.708 a 3.772,3.772 0 0 0 -0.92,2.192 q 0,1.524 0.172,4.58 c 0.116,2.04 0.172,3.556 0.172,4.556 0,0.344 -0.076,0.556 -0.228,0.632 a 6.976,6.976 0 0 1 -0.8,0.144 43.936,43.936 0 0 1 -5.2,0.176 47.884,47.884 0 0 1 -5.332,-0.176 c -0.536,-0.076 -0.8,-0.356 -0.8,-0.836 q 0,-1.524 0.26,-4.652 0.26,-3.128 0.276,-4.7 a 3.716,3.716 0 0 0 -0.692,-2 q -3.488,-4.932 -9.972,-15.104 a 3.932,3.932 0 0 1 -0.664,-1.844 q 0,-1.728 -0.172,-5.2 -0.172,-3.472 -0.172,-5.2 0,-0.948 0.576,-0.948 1.756,0 5.332,0.144 3.576,0.144 5.36,0.144 c 0.444,0 0.664,0.144 0.664,0.432 0,0.98 -0.044,2.452 -0.128,4.424 -0.084,1.972 -0.132,3.444 -0.132,4.424 q 0,0.864 2.536,4.32 2,2.712 3.316,4.18 1.2,-1.38 3.14,-4.148 2.476,-3.46 2.48,-4.18 0,-1.44 -0.216,-4.368 -0.216,-2.928 -0.216,-4.364 c 0,-0.4 0.084,-0.636 0.256,-0.692 h 0.704 q 1.728,0 5.2,-0.16 3.472,-0.16 5.232,-0.156 0.576,0 0.576,1.236 0,1.528 0.056,4.6 c 0.048,2.096 0.068,3.66 0.068,4.676 z"
     fill="#ffffff"
     id="path18"
     style="stroke-width:0.4" />
  <path
     d="m 320.764,66.148 q 0,2.908 -1.872,3.316 -0.316,0.056 -5.968,0.632 -3.4,0.376 -10.144,0.892 c 0.268,1.252 1.084,2.2 2.448,2.856 a 8.684,8.684 0 0 0 3.808,0.8 10.9,10.9 0 0 0 5.156,-1.38 l 2.192,-1.384 q 0.604,0.288 2.032,2.94 1.428,2.652 1.428,3.372 c 0,0.132 -0.148,0.356 -0.436,0.66 q -3.516,3.78 -10.92,3.776 -6.864,0 -11.068,-4 -4.324,-4.068 -4.324,-10.868 0,-6.624 3.864,-10.864 3.972,-4.4 10.548,-4.4 a 12.516,12.516 0 0 1 9.396,4.036 13.408,13.408 0 0 1 3.86,9.616 z m -10.088,-1.74 a 4.448,4.448 0 0 0 -1.268,-3.14 4,4 0 0 0 -3.024,-1.356 3.648,3.648 0 0 0 -3,1.528 5.272,5.272 0 0 0 -1.092,3.316 c 0,0.52 0.268,0.776 0.8,0.776 a 50.768,50.768 0 0 0 6.628,-0.66 c 0.64,-0.116 0.956,-0.272 0.956,-0.464 z"
     fill="#ffffff"
     id="path20"
     style="stroke-width:0.4" />
  <path
     d="m 334.136,64.448 q 0,7.868 0.056,12.076 c 0,0.44 0.028,1.2 0.088,2.276 0.056,0.98 0.084,1.74 0.084,2.276 q 0,0.604 -0.72,0.72 a 30.9,30.9 0 0 1 -4.668,0.232 c -2.304,0 -3.776,-0.076 -4.4,-0.232 a 0.852,0.852 0 0 1 -0.72,-0.776 v -1.24 q 0,-2.568 0.056,-7.68 0.056,-5.112 0.056,-7.652 0,-12.108 0.032,-11.04 a 92.164,92.164 0 0 0 -0.72,-10.98 2.86,2.86 0 0 1 -0.06,-0.488 c 0,-0.424 0.252,-0.636 0.748,-0.636 h 10.292 c 0.48,0 0.7,0.204 0.66,0.604 l -0.028,0.52 q -0.756,12.452 -0.756,22.02 z"
     fill="#ffffff"
     id="path22"
     style="stroke-width:0.4" />
  <path
     d="m 349.38,64.448 q 0,7.868 0.06,12.076 c 0,0.44 0.028,1.2 0.084,2.276 0.06,0.98 0.088,1.74 0.088,2.276 q 0,0.604 -0.72,0.72 a 30.9,30.9 0 0 1 -4.668,0.232 c -2.308,0 -3.776,-0.076 -4.4,-0.232 a 0.864,0.864 0 0 1 -0.72,-0.776 v -1.24 q 0,-2.568 0.06,-7.68 0.06,-5.112 0.036,-7.652 0,-12.108 0.028,-11.04 a 90.508,90.508 0 0 0 -0.72,-10.98 2.772,2.772 0 0 1 -0.056,-0.488 c 0,-0.424 0.248,-0.636 0.748,-0.636 h 10.288 c 0.48,0 0.704,0.204 0.664,0.604 l -0.028,0.52 q -0.74,12.452 -0.744,22.02 z"
     fill="#ffffff"
     id="path24"
     style="stroke-width:0.4" />
  <path
     d="m 381.816,67.608 q 0,6.576 -4.024,10.664 -4.024,4.088 -10.56,4.092 -6.344,0 -10.436,-4.032 -4.092,-4.032 -4.092,-10.376 0,-6.688 3.92,-10.852 3.92,-4.164 10.608,-4.164 6.508,0 10.548,4.08 4.04,4.08 4.036,10.588 z m -9.456,0 a 6.196,6.196 0 0 0 -1.412,-4 4.496,4.496 0 0 0 -3.66,-1.744 4.644,4.644 0 0 0 -3.748,1.788 6.464,6.464 0 0 0 0,8 4.8,4.8 0 0 0 7.468,0 6.188,6.188 0 0 0 1.352,-4.044 z"
     fill="#ffffff"
     id="path26"
     style="stroke-width:0.4" />
  <path
     d="m 426.3,61.608 q 0,4.492 -0.72,6.252 -0.748,1.848 -3.748,6.86 -3.052,5.16 -4.208,6.4 -0.78,0.832 -3.804,0.836 a 16.82,16.82 0 0 1 -3.172,-0.176 2.344,2.344 0 0 1 -1.008,-0.576 q -1.644,-1.6 -5.072,-7.924 -3.628,6.5 -4.968,7.928 c -0.464,0.5 -1.72,0.752 -3.776,0.752 A 13.724,13.724 0 0 1 393,81.784 q -1.44,-0.4 -4.872,-6.252 a 69.404,69.404 0 0 1 -4,-7.668 q -0.748,-1.84 -0.752,-6.252 0,-5.336 0.288,-6.516 a 0.94,0.94 0 0 1 1.008,-0.748 q 1.324,0 3.98,0.088 2.656,0.088 3.976,0.084 c 0.444,0 0.664,0.32 0.664,0.952 q 0,0.832 -0.06,2.552 -0.06,1.72 -0.056,2.548 c 0,2.328 0.056,4.044 0.172,5.16 0.04,0.424 0.552,1.504 1.544,3.244 0.992,1.74 1.6,2.608 1.828,2.608 0.348,0 0.98,-0.856 1.904,-2.568 a 24.28,24.28 0 0 0 1.468,-3.2 q 0.348,-1.048 0.348,-5.2 c 0,-0.58 -0.056,-1.436 -0.16,-2.58 -0.104,-1.144 -0.16,-2 -0.16,-2.552 0,-0.552 0.224,-0.892 0.664,-0.892 0.54,0 1.6,0 3.2,-0.032 l 1.18,-0.028 h -0.1 c -0.048,0 -0.064,0 -0.044,0 H 406 c 0.732,-0.02 1.796,0 3.2,0.06 0.424,0.056 0.632,0.356 0.632,0.892 q 0,1.096 -0.144,3.328 -0.144,2.232 -0.144,3.328 c 0,1.96 0.08,3.2 0.232,3.72 A 26.98,26.98 0 0 0 411.16,69 q 1.296,2.596 1.816,2.596 0.52,0 1.928,-2.624 1.356,-2.508 1.444,-3.284 0.116,-1.1 0.116,-10.204 0,-1.008 0.576,-1.008 c 0.884,0 2.212,-0.028 4,-0.088 1.788,-0.06 3.108,-0.084 4,-0.084 a 0.936,0.936 0 0 1 0.98,0.8 q 0.276,1.216 0.28,6.504 z"
     fill="#ffffff"
     id="path28"
     style="stroke-width:0.4" />
  <path
     d="m 440.536,75.484 a 6.708,6.708 0 0 1 -1.972,4.872 6.464,6.464 0 0 1 -4.8,2 6.4,6.4 0 0 1 -4.8,-2.032 6.976,6.976 0 0 1 0,-9.696 6.704,6.704 0 0 1 9.6,0 6.672,6.672 0 0 1 1.972,4.856 z"
     fill="#ffffff"
     id="path30"
     style="stroke-width:0.4" />
  <path
     d="m 471.752,67.608 q 0,6.576 -4.024,10.664 -4.024,4.088 -10.56,4.092 -6.344,0 -10.432,-4.032 -4.088,-4.032 -4.096,-10.376 0,-6.688 3.92,-10.852 3.92,-4.164 10.608,-4.164 6.508,0 10.548,4.08 4.04,4.08 4.036,10.588 z m -9.456,0 a 6.196,6.196 0 0 0 -1.412,-4 4.496,4.496 0 0 0 -3.66,-1.744 4.636,4.636 0 0 0 -3.744,1.788 6.448,6.448 0 0 0 0,8 4.8,4.8 0 0 0 7.464,0 6.188,6.188 0 0 0 1.352,-4.044 z"
     fill="#ffffff"
     id="path32"
     style="stroke-width:0.4" />
  <path
     d="m 491.116,58.48 a 1.396,1.396 0 0 1 -0.432,0.78 6.548,6.548 0 0 0 -1.6,-0.204 5.116,5.116 0 0 0 -2.852,0.752 2.728,2.728 0 0 0 -1.384,2.448 q 0,1.008 1.468,2.568 a 29.036,29.036 0 0 1 2.74,3.14 8.268,8.268 0 0 1 1.468,4.696 9.396,9.396 0 0 1 -0.576,3.112 6.04,6.04 0 0 1 -1.672,2.652 19.824,19.824 0 0 1 -4.984,3.112 14.496,14.496 0 0 1 -5.68,1.328 q -0.576,0 -2.58,-3.128 -2.004,-3.128 -2,-3.82 c 0,-0.172 0.104,-0.276 0.316,-0.316 l 4.064,-0.748 q 2.54,-0.8 2.536,-2.652 0,-1.264 -1.472,-2.94 -2.624,-2.908 -2.736,-3.084 a 7.46,7.46 0 0 1 -1.472,-4.38 q 0,-4.328 4.4,-7.348 a 14.572,14.572 0 0 1 8.4,-2.68 q 0.46,0 2.28,3.096 1.82,3.096 1.768,3.616 z"
     fill="#ffffff"
     id="path34"
     style="stroke-width:0.4" />
  <polygon
     class="cls-2"
     points="258.87,75.39 155.61,51.06 52.35,75.39 155.61,99.72 "
     id="polygon36"
     transform="scale(0.4)" />
  <path
     class="cls-2"
     d="m 20.94,93.3 37.08,9.732 v -54.8 L 20.94,38.5 Z M 39.48,56.268 c 5.448,0 9.864,6.496 9.864,14.504 0,8.008 -4.4,14.504 -9.864,14.504 -5.464,0 -9.88,-6.492 -9.88,-14.504 0,-8.012 4.428,-14.504 9.88,-14.504 z"
     id="path38"
     style="stroke-width:0.4" />
  <path
     class="cls-2"
     d="m 66.468,48.248 v 54.8 l 37.08,-9.732 v -54.8 z m 18.54,37.028 c -5.448,0 -9.864,-6.492 -9.864,-14.504 0,-8.012 4.4,-14.504 9.864,-14.504 5.464,0 9.868,6.496 9.868,14.504 0,8.008 -4.416,14.504 -9.868,14.504 z"
     id="path40"
     style="stroke-width:0.4" />
</svg>
